<svg xmlns="http://www.w3.org/2000/svg" viewBox="0 0 64 64" fill="none">
  <defs>
    <linearGradient id="g" x1="12" y1="8" x2="52" y2="52" gradientUnits="userSpaceOnUse">
      <stop stop-color="#10B981"/>
      <stop offset="1" stop-color="#06B6D4"/>
    </linearGradient>
  </defs>
  <rect x="6" y="6" width="52" height="52" rx="14" fill="url(#g)"/>
  <path d="M22 44c0-6 3-10 8-12-4-2-7-5-7-10 0-6 5-10 11-10h9v5h-8c-3 0-6 2-6 5 0 3 3 5 6 5h8v6h-8c-4 0-7 2-7 6h-6Z" fill="#0B1120" opacity="0.9"/>
  <path d="M24 44c0-5 3-9 7-10-4-2-6-4-6-9 0-7 5-11 11-11h10v4h-9c-4 0-7 3-7 7s3 7 7 7h9v5h-9c-4 0-8 3-8 7h-5Z" fill="#ECFEFF" opacity="0.92"/>
</svg>
